<svg width="32" height="30" viewBox="0 0 32 30" fill="none" xmlns="http://www.w3.org/2000/svg">
<path d="M17.3333 17.3333H21.3333V20H17.3333V24H14.6667V20H10.6667V17.3333H14.6667V13.3333H17.3333V17.3333ZM32 6.66667V29.3333H0V4C0 2.93913 0.421427 1.92172 1.17157 1.17157C1.92172 0.421427 2.93913 0 4 0H10.9813L16.3147 2.66667H28C29.0609 2.66667 30.0783 3.08809 30.8284 3.83824C31.5786 4.58839 32 5.6058 32 6.66667ZM2.66667 4V8H29.3333V6.66667C29.3333 6.31305 29.1929 5.97391 28.9428 5.72386C28.6928 5.47381 28.3536 5.33333 28 5.33333H15.6853L10.352 2.66667H4C3.64638 2.66667 3.30724 2.80714 3.05719 3.05719C2.80714 3.30724 2.66667 3.64638 2.66667 4ZM29.3333 26.6667V10.6667H2.66667V26.6667H29.3333Z" fill="#46CD6E"/>
</svg>
