<svg width="32" height="32" viewBox="0 0 32 32" fill="none" xmlns="http://www.w3.org/2000/svg">
<path d="M32 16C32 13.832 31.048 11.7867 29.4333 10.5013C29.62 8.33867 28.8467 6.22 27.3133 4.68533C25.78 3.15333 23.668 2.37733 21.6107 2.612C20.2133 0.952 18.168 0 16 0C13.832 0 11.7867 0.952 10.5013 2.56667C8.336 2.38 6.21867 3.152 4.68533 4.68667C3.152 6.22 2.38 8.34 2.612 10.3893C0.952 11.7867 0 13.832 0 16C0 18.168 0.952 20.2133 2.56667 21.4987C2.38 23.6613 3.15333 25.7813 4.68667 27.3147C6.22 28.8493 8.34533 29.624 10.3893 29.388C11.7867 31.048 13.832 32 16 32C18.168 32 20.2133 31.048 21.4987 29.4333C23.656 29.6187 25.7787 28.848 27.3133 27.3133C28.8453 25.78 29.6187 23.66 29.3867 21.6107C31.048 20.2133 32 18.168 32 16ZM27.6707 19.5707C27.032 20.108 26.7053 20.8947 26.7773 21.7267C26.8947 23.104 26.404 24.4533 25.428 25.428C24.452 26.404 23.1053 26.8933 21.7267 26.7773C20.892 26.7093 20.1093 27.032 19.572 27.6707C18.6813 28.728 17.38 29.3347 16 29.3347C14.62 29.3347 13.3187 28.728 12.428 27.6707C11.9387 27.0907 11.2453 26.7693 10.4987 26.7693C10.424 26.7693 10.348 26.772 10.2733 26.7787C8.904 26.8973 7.548 26.4053 6.572 25.4293C5.59733 24.4533 5.10533 23.104 5.224 21.728C5.29467 20.896 4.97067 20.112 4.33067 19.572C3.27333 18.6827 2.66667 17.38 2.66667 16.0013C2.66667 14.6227 3.27333 13.32 4.33067 12.4293C4.96933 11.8907 5.29467 11.1053 5.22267 10.2733C5.10533 8.89733 5.596 7.548 6.572 6.572C7.548 5.59733 8.89733 5.10933 10.2733 5.224C11.1013 5.28933 11.8893 4.96933 12.4293 4.33067C13.3187 3.27333 14.6213 2.66667 16 2.66667C17.3787 2.66667 18.6813 3.27333 19.572 4.33067C20.1093 4.968 20.8933 5.29867 21.728 5.22267C23.0947 5.11067 24.452 5.596 25.428 6.572C26.4027 7.54667 26.8947 8.89733 26.7773 10.2733C26.7053 11.1053 27.0307 11.8907 27.6707 12.4293C28.7267 13.3187 29.3333 14.6213 29.3333 16C29.3333 17.3787 28.7267 18.6813 27.6707 19.5707ZM21.3333 18.6667C21.3333 20.872 19.5387 22.6667 17.3333 22.6667V24C17.3333 24.736 16.736 25.3333 16 25.3333C15.264 25.3333 14.6667 24.736 14.6667 24V22.6667H14.3093C12.8853 22.6667 11.5587 21.9013 10.8453 20.668C10.4773 20.0307 10.6947 19.216 11.332 18.8467C11.968 18.4773 12.784 18.696 13.1533 19.3333C13.3907 19.744 13.8347 20 14.3093 20H17.3333C18.0693 20 18.6667 19.4013 18.6667 18.6667C18.6667 18.1627 18.3053 17.736 17.808 17.6533L13.752 16.9773C11.964 16.68 10.6653 15.1467 10.6653 13.3333C10.6653 11.128 12.46 9.33333 14.6653 9.33333V8C14.6653 7.264 15.2627 6.66667 15.9987 6.66667C16.7347 6.66667 17.332 7.264 17.332 8V9.33333H17.6893C19.112 9.33333 20.44 10.1 21.1533 11.3333C21.5227 11.9707 21.304 12.7853 20.668 13.1547C20.028 13.5227 19.212 13.3053 18.8467 12.668C18.608 12.256 18.1653 12.0013 17.6907 12.0013H14.6667C13.932 12.0013 13.3333 12.6 13.3333 13.3347C13.3333 13.8387 13.6947 14.2653 14.192 14.348L18.2467 15.024C20.036 15.3213 21.3333 16.8547 21.3333 18.668V18.6667Z" fill="#46CD6E"/>
</svg>
