<svg width="48" height="48" viewBox="0 0 48 48" fill="none" xmlns="http://www.w3.org/2000/svg">
<circle cx="24" cy="24" r="24" fill="#101010"/>
<path d="M40 24C40 21.832 39.048 19.7867 37.4333 18.5013C37.62 16.3387 36.8467 14.22 35.3133 12.6853C33.78 11.1533 31.668 10.3773 29.6107 10.612C28.2133 8.952 26.168 8 24 8C21.832 8 19.7867 8.952 18.5013 10.5667C16.336 10.38 14.2187 11.152 12.6853 12.6867C11.152 14.22 10.38 16.34 10.612 18.3893C8.952 19.7867 8 21.832 8 24C8 26.168 8.952 28.2133 10.5667 29.4987C10.38 31.6613 11.1533 33.7813 12.6867 35.3147C14.22 36.8493 16.3453 37.624 18.3893 37.388C19.7867 39.048 21.832 40 24 40C26.168 40 28.2133 39.048 29.4987 37.4333C31.656 37.6187 33.7787 36.848 35.3133 35.3133C36.8453 33.78 37.6187 31.66 37.3867 29.6107C39.048 28.2133 40 26.168 40 24ZM35.6707 27.5707C35.032 28.108 34.7053 28.8947 34.7773 29.7267C34.8947 31.104 34.404 32.4533 33.428 33.428C32.452 34.404 31.1053 34.8933 29.7267 34.7773C28.892 34.7093 28.1093 35.032 27.572 35.6707C26.6813 36.728 25.38 37.3347 24 37.3347C22.62 37.3347 21.3187 36.728 20.428 35.6707C19.9387 35.0907 19.2453 34.7693 18.4987 34.7693C18.424 34.7693 18.348 34.772 18.2733 34.7787C16.904 34.8973 15.548 34.4053 14.572 33.4293C13.5973 32.4533 13.1053 31.104 13.224 29.728C13.2947 28.896 12.9707 28.112 12.3307 27.572C11.2733 26.6827 10.6667 25.38 10.6667 24.0013C10.6667 22.6227 11.2733 21.32 12.3307 20.4293C12.9693 19.8907 13.2947 19.1053 13.2227 18.2733C13.1053 16.8973 13.596 15.548 14.572 14.572C15.548 13.5973 16.8973 13.1093 18.2733 13.224C19.1013 13.2893 19.8893 12.9693 20.4293 12.3307C21.3187 11.2733 22.6213 10.6667 24 10.6667C25.3787 10.6667 26.6813 11.2733 27.572 12.3307C28.1093 12.968 28.8933 13.2987 29.728 13.2227C31.0947 13.1107 32.452 13.596 33.428 14.572C34.4027 15.5467 34.8947 16.8973 34.7773 18.2733C34.7053 19.1053 35.0307 19.8907 35.6707 20.4293C36.7267 21.3187 37.3333 22.6213 37.3333 24C37.3333 25.3787 36.7267 26.6813 35.6707 27.5707ZM29.3333 26.6667C29.3333 28.872 27.5387 30.6667 25.3333 30.6667V32C25.3333 32.736 24.736 33.3333 24 33.3333C23.264 33.3333 22.6667 32.736 22.6667 32V30.6667H22.3093C20.8853 30.6667 19.5587 29.9013 18.8453 28.668C18.4773 28.0307 18.6947 27.216 19.332 26.8467C19.968 26.4773 20.784 26.696 21.1533 27.3333C21.3907 27.744 21.8347 28 22.3093 28H25.3333C26.0693 28 26.6667 27.4013 26.6667 26.6667C26.6667 26.1627 26.3053 25.736 25.808 25.6533L21.752 24.9773C19.964 24.68 18.6653 23.1467 18.6653 21.3333C18.6653 19.128 20.46 17.3333 22.6653 17.3333V16C22.6653 15.264 23.2627 14.6667 23.9987 14.6667C24.7347 14.6667 25.332 15.264 25.332 16V17.3333H25.6893C27.112 17.3333 28.44 18.1 29.1533 19.3333C29.5227 19.9707 29.304 20.7853 28.668 21.1547C28.028 21.5227 27.212 21.3053 26.8467 20.668C26.608 20.256 26.1653 20.0013 25.6907 20.0013H22.6667C21.932 20.0013 21.3333 20.6 21.3333 21.3347C21.3333 21.8387 21.6947 22.2653 22.192 22.348L26.2467 23.024C28.036 23.3213 29.3333 24.8547 29.3333 26.668V26.6667Z" fill="#46CD6E"/>
</svg>
