<svg width="24" height="32" viewBox="0 0 24 32" fill="none" xmlns="http://www.w3.org/2000/svg">
<path d="M17.3333 0H17.16C16.5633 0.00566909 15.9853 0.209351 15.5169 0.579066C15.0485 0.94878 14.7161 1.46359 14.572 2.04267C14.4176 2.60645 14.0823 3.1039 13.6176 3.45847C13.1529 3.81305 12.5845 4.00511 12 4.00511C11.4155 4.00511 10.8471 3.81305 10.3824 3.45847C9.9177 3.1039 9.58237 2.60645 9.428 2.04267C9.28386 1.46359 8.95149 0.94878 8.48307 0.579066C8.01466 0.209351 7.43672 0.00566909 6.84 0L6.66667 0C4.89921 0.00211714 3.20474 0.705176 1.95496 1.95496C0.705176 3.20474 0.00211714 4.89921 0 6.66667V28C0 29.0609 0.421427 30.0783 1.17157 30.8284C1.92172 31.5786 2.93913 32 4 32H6.84C7.43672 31.9943 8.01466 31.7906 8.48307 31.4209C8.95149 31.0512 9.28386 30.5364 9.428 29.9573C9.58237 29.3936 9.9177 28.8961 10.3824 28.5415C10.8471 28.187 11.4155 27.9949 12 27.9949C12.5845 27.9949 13.1529 28.187 13.6176 28.5415C14.0823 28.8961 14.4176 29.3936 14.572 29.9573C14.7161 30.5364 15.0485 31.0512 15.5169 31.4209C15.9853 31.7906 16.5633 31.9943 17.16 32H20C21.0609 32 22.0783 31.5786 22.8284 30.8284C23.5786 30.0783 24 29.0609 24 28V6.66667C23.9979 4.89921 23.2948 3.20474 22.045 1.95496C20.7953 0.705176 19.1008 0.00211714 17.3333 0ZM20 29.3333L17.1427 29.2493C16.8295 28.1179 16.1518 27.1214 15.2146 26.4144C14.2774 25.7073 13.1331 25.3293 11.9591 25.3389C10.7852 25.3484 9.64718 25.7451 8.72163 26.4673C7.79607 27.1895 7.13468 28.1969 6.84 29.3333H4C3.64638 29.3333 3.30724 29.1929 3.05719 28.9428C2.80714 28.6928 2.66667 28.3536 2.66667 28V22.6667H5.33333C5.68696 22.6667 6.02609 22.5262 6.27614 22.2761C6.52619 22.0261 6.66667 21.687 6.66667 21.3333C6.66667 20.9797 6.52619 20.6406 6.27614 20.3905C6.02609 20.1405 5.68696 20 5.33333 20H2.66667V6.66667C2.66667 5.6058 3.08809 4.58839 3.83824 3.83824C4.58839 3.08809 5.6058 2.66667 6.66667 2.66667L6.85733 2.75067C7.16963 3.87523 7.84133 4.86673 8.76989 5.5738C9.69845 6.28088 10.8329 6.66469 12 6.66667C13.1829 6.6566 14.3301 6.2604 15.2671 5.53835C16.204 4.8163 16.8795 3.80793 17.1907 2.66667H17.3333C18.3942 2.66667 19.4116 3.08809 20.1618 3.83824C20.9119 4.58839 21.3333 5.6058 21.3333 6.66667V20H18.6667C18.313 20 17.9739 20.1405 17.7239 20.3905C17.4738 20.6406 17.3333 20.9797 17.3333 21.3333C17.3333 21.687 17.4738 22.0261 17.7239 22.2761C17.9739 22.5262 18.313 22.6667 18.6667 22.6667H21.3333V28C21.3333 28.3536 21.1929 28.6928 20.9428 28.9428C20.6928 29.1929 20.3536 29.3333 20 29.3333Z" fill="#46CD6E"/>
</svg>
